<svg width="16" height="16" viewBox="0 0 16 16" fill="none" xmlns="http://www.w3.org/2000/svg">
<path d="M6.66663 1.33333V6.66667L8.66663 4.66667L10.6666 6.66667V1.33333" stroke="#45556C" stroke-width="1.33333" stroke-linecap="round" stroke-linejoin="round"/>
<path d="M2.66663 13V3C2.66663 2.55797 2.84222 2.13405 3.15478 1.82149C3.46734 1.50893 3.89127 1.33333 4.33329 1.33333H12.6666C12.8434 1.33333 13.013 1.40357 13.138 1.52859C13.2631 1.65362 13.3333 1.82319 13.3333 2V14C13.3333 14.1768 13.2631 14.3464 13.138 14.4714C13.013 14.5964 12.8434 14.6667 12.6666 14.6667H4.33329C3.89127 14.6667 3.46734 14.4911 3.15478 14.1785C2.84222 13.8659 2.66663 13.442 2.66663 13ZM2.66663 13C2.66663 12.558 2.84222 12.134 3.15478 11.8215C3.46734 11.5089 3.89127 11.3333 4.33329 11.3333H13.3333" stroke="#45556C" stroke-width="1.33333" stroke-linecap="round" stroke-linejoin="round"/>
</svg>
