<svg width="20" height="20" viewBox="0 0 20 20" fill="none" xmlns="http://www.w3.org/2000/svg">
<path d="M13.6365 17.2727V15.7576C13.6365 14.9539 13.3355 14.1831 12.7996 13.6148C12.2638 13.0465 11.5371 12.7273 10.7793 12.7273H6.49362C5.73586 12.7273 5.00913 13.0465 4.47331 13.6148C3.93749 14.1831 3.63647 14.9539 3.63647 15.7576V17.2727" stroke="#7B1517" stroke-linecap="round" stroke-linejoin="round"/>
<path d="M9.0908 10C10.597 10 11.8181 8.77896 11.8181 7.27273C11.8181 5.7665 10.597 4.54546 9.0908 4.54546C7.58457 4.54546 6.36353 5.7665 6.36353 7.27273C6.36353 8.77896 7.58457 10 9.0908 10Z" stroke="#7B1517" stroke-linecap="round" stroke-linejoin="round"/>
<path d="M18.1819 17.2727V15.724C18.1813 15.0377 17.9131 14.371 17.4195 13.8286C16.9258 13.2862 16.2347 12.8988 15.4546 12.7273" stroke="#7B1517" stroke-linecap="round" stroke-linejoin="round"/>
<path d="M13.6365 4.54546C14.1566 4.70051 14.6176 5.05269 14.9468 5.5465C15.276 6.0403 15.4547 6.64762 15.4547 7.27273C15.4547 7.89783 15.276 8.50516 14.9468 8.99896C14.6176 9.49276 14.1566 9.84495 13.6365 10" stroke="#7B1517" stroke-linecap="round" stroke-linejoin="round"/>
</svg>
