<svg preserveAspectRatio="none" width="100%" height="100%" overflow="visible" style="display: block;" viewBox="0 0 14 14.0036" fill="none" xmlns="http://www.w3.org/2000/svg">
<g id="Group">
<path id="Vector" d="M13.999 7.00206C13.999 10.5384 11.3784 13.462 7.97408 13.9364C7.65576 13.9806 7.33009 14.0036 6.99951 14.0036C6.61792 14.0036 6.2432 13.9732 5.87829 13.9143C2.54554 13.3776 0 10.4869 0 7.00206C0 3.13503 3.13411 0 7 0C10.8659 0 14 3.13503 14 7.00206H13.999Z" fill="var(--fill-0, #7B1517)"/>
<path id="Vector_2" d="M7.97408 5.62245V7.14778H9.86043L9.56173 9.20248H7.97408V13.9364C7.65576 13.9806 7.33009 14.0036 6.99951 14.0036C6.61793 14.0036 6.24321 13.9732 5.8783 13.9143V9.20248H4.1386V7.14778H5.8783V5.28148C5.8783 4.12363 6.81657 3.18459 7.97457 3.18459V3.18557C7.978 3.18557 7.98094 3.18459 7.98438 3.18459H9.86092V4.9616H8.63474C8.27032 4.9616 7.97457 5.25744 7.97457 5.62197L7.97408 5.62245Z" fill="var(--fill-0, white)"/>
</g>
</svg>
