<svg preserveAspectRatio="none" width="100%" height="100%" overflow="visible" style="display: block;" viewBox="0 0 14.0001 14.0042" fill="none" xmlns="http://www.w3.org/2000/svg">
<g id="Group">
<path id="Vector" d="M7.01597 0H6.98409C3.12688 0 0 3.1278 0 6.98615V7.01804C0 10.8764 3.12688 14.0042 6.98409 14.0042H7.01597C10.8732 14.0042 14.0001 10.8764 14.0001 7.01804V6.98615C14.0001 3.1278 10.8732 0 7.01597 0Z" fill="var(--fill-0, #7B1517)"/>
<path id="Vector_2" d="M10.3842 5.06629V6.38855C10.1531 6.36598 9.85296 6.31349 9.52089 6.19181C9.0873 6.03284 8.76456 5.81549 8.55316 5.6472V8.31969L8.54776 8.31135C8.5512 8.36434 8.55316 8.41831 8.55316 8.47277C8.55316 9.79994 7.47359 10.8803 6.14632 10.8803C4.81906 10.8803 3.73949 9.79994 3.73949 8.47277C3.73949 7.1456 4.81906 6.06473 6.14632 6.06473C6.2763 6.06473 6.40383 6.07504 6.52842 6.09515V7.39828C6.40874 7.35559 6.28023 7.33254 6.14632 7.33254C5.51801 7.33254 5.00642 7.84378 5.00642 8.47277C5.00642 9.10176 5.51801 9.613 6.14632 9.613C6.77464 9.613 7.28622 9.10127 7.28622 8.47277C7.28622 8.44922 7.28573 8.42567 7.28426 8.40212V3.20875H8.60515C8.61006 3.32061 8.61447 3.43346 8.61938 3.54533C8.62821 3.76562 8.70668 3.97708 8.84353 4.15028C9.00392 4.35389 9.24082 4.59038 9.57338 4.77927C9.88484 4.95541 10.1772 5.03146 10.3842 5.06727V5.06629Z" fill="var(--fill-0, #F9F5EA)"/>
</g>
</svg>
