<svg preserveAspectRatio="none" width="100%" height="100%" overflow="visible" style="display: block;" viewBox="0 0 15.9999 16.0046" fill="none" xmlns="http://www.w3.org/2000/svg">
<g id="Group">
<path id="Vector" d="M15.9999 8.00231C15.9999 3.58275 12.4182 0 7.99995 0C3.5817 0 0 3.58275 0 8.00231C0 12.4219 3.5817 16.0046 7.99995 16.0046C12.4182 16.0046 15.9999 12.4219 15.9999 8.00231Z" fill="var(--fill-0, #7B1517)"/>
<path id="Vector_2" d="M13.0374 6.34404C12.9744 5.73618 12.8389 5.06421 12.3403 4.71108C11.9541 4.43723 11.4465 4.42711 10.9726 4.42767C9.97085 4.42767 8.96854 4.42936 7.96679 4.42992C7.00326 4.43104 6.03974 4.43161 5.07621 4.43273C4.67371 4.43273 4.28246 4.4018 3.90863 4.57612C3.58764 4.7257 3.33636 5.01023 3.18514 5.32681C2.97546 5.76711 2.93161 6.26588 2.90632 6.75284C2.85966 7.63961 2.86472 8.52863 2.92037 9.41484C2.96141 10.0615 3.0654 10.7762 3.56516 11.1884C4.00813 11.5533 4.63324 11.5713 5.20775 11.5719C7.03137 11.5736 8.85555 11.5753 10.6797 11.5764C10.9136 11.5769 11.1575 11.5724 11.3959 11.5466C11.8647 11.496 12.3116 11.3616 12.6129 11.0141C12.9171 10.6637 12.9952 10.1762 13.0413 9.71456C13.1537 8.59442 13.1526 7.46361 13.0374 6.34404ZM6.9122 9.57229V6.43176L9.63076 8.00174L6.9122 9.57229Z" fill="var(--fill-0, #F9F5EA)"/>
</g>
</svg>
