<svg width="17" height="17" viewBox="0 0 17 17" fill="none" xmlns="http://www.w3.org/2000/svg">
<path d="M0.175835 16.0834H1.1877L1.2668 6.86217H15.3362V16.0372C15.6051 16.196 16.5303 15.8767 16.6258 16.2895C16.6505 16.3984 16.6258 16.4956 16.5644 16.5836H0.0587635C-0.0557766 16.4439 0.00497437 16.0834 0.175835 16.0834ZM4.87068 8.07603C4.87068 8.02682 4.70552 7.86931 4.63211 7.87793C4.08283 7.91177 3.46583 7.82686 2.92541 7.87485C2.852 7.88162 2.76214 7.88962 2.70393 7.93637C2.67482 7.96037 2.59445 8.11356 2.59445 8.13756V9.07518L4.87068 9.04442V8.07603ZM9.83447 8.26061C9.81296 8.0545 9.75157 7.92038 9.52692 7.88346C8.75932 7.92284 7.88604 7.80594 7.13046 7.87485C6.96782 7.88962 6.79823 7.96345 6.76975 8.1394C6.74634 8.28091 6.75077 8.91399 6.79254 9.03581C6.84 9.1767 6.96023 9.20931 7.09945 9.22899L9.61489 9.21484C9.90028 9.12994 9.85852 8.49747 9.83447 8.26061ZM14.0079 8.1068C14.0079 8.05819 13.8155 7.8687 13.7377 7.87793C13.2074 7.9093 12.617 7.83055 12.0942 7.87485C12.017 7.88162 11.8842 7.90377 11.8272 7.9536C11.8038 7.97391 11.7316 8.11972 11.7316 8.13756V9.04442H14.0079V8.1068ZM11.7316 14.2543C11.7316 14.3127 11.8905 14.4419 11.9683 14.4241L13.8528 14.4099C14.092 14.3453 14.0205 13.4268 13.9579 13.2225L11.7316 13.2551V14.2543ZM11.7316 12.7174L11.7791 12.7635H13.9762V11.9182C13.9762 11.9084 14.0053 11.8807 14.0028 11.8339C13.9952 11.7041 13.8655 11.6094 13.7402 11.5946C13.196 11.5324 12.5284 11.6413 11.9709 11.597C11.8766 11.5958 11.7316 11.749 11.7316 11.8259V12.7174ZM12.1582 10.3684C12.2626 10.3684 12.3499 10.3346 12.4417 10.334C12.8226 10.3309 13.4206 10.3869 13.7687 10.3333C13.8541 10.3204 13.9762 10.2054 13.9762 10.1352V9.50523H11.7316C11.762 9.95744 11.4817 10.3623 12.1582 10.3684ZM6.00911 16.068L6.05657 16.1141H6.57801C6.59257 16.0575 6.60649 16.0052 6.61155 15.9462C6.69571 14.907 6.56409 13.8193 6.57675 12.7802C6.5951 11.3005 8.39798 10.473 9.50414 11.5632C9.69715 11.7539 9.99267 12.3009 9.99267 12.5636V16.0834C10.1768 16.0397 10.4091 16.1455 10.5616 16.0372V12.5021C10.5616 11.4297 9.33328 10.4576 8.27142 10.457C7.17918 10.4564 6.00911 11.4863 6.00911 12.5636V16.068ZM2.59445 14.2543C2.59445 14.2678 2.7286 14.3835 2.76151 14.3988C2.94313 14.4856 3.0197 14.4222 3.1779 14.4216C3.6734 14.4198 4.16889 14.4271 4.66438 14.4228C4.70741 14.4253 4.83904 14.2961 4.83904 14.285V13.2551H2.59445V14.2543ZM2.59445 12.7943H4.83967C4.84347 12.574 4.83398 12.3526 4.83777 12.1323C4.84157 11.933 4.96877 11.6321 4.63464 11.5946C4.26128 11.5528 3.26966 11.5546 2.8944 11.5952C2.80961 11.6044 2.59445 11.6666 2.59445 11.7644V12.7943ZM2.59445 10.1045C2.61913 10.2251 2.74189 10.3155 2.86593 10.3321C3.41711 10.4078 4.12649 10.2841 4.69476 10.3333C4.97003 10.2909 4.88397 9.71134 4.87068 9.50523C4.22394 9.48924 3.57215 9.52677 2.92541 9.50647C2.86782 9.50462 2.59445 9.42956 2.59445 9.52062C2.59445 9.67627 2.56724 9.9722 2.59445 10.1045Z" fill="#475569"/>
<path d="M0.101448 5.53066C0.227165 5.33508 0.806483 5.02411 1.03328 4.86802L8.01983 0.070326C8.14175 0.00430842 8.28011 -0.0142012 8.41783 0.0104783C8.51701 0.0289879 8.6023 0.101175 8.69011 0.144981L16.3779 5.36778C16.8069 5.69848 16.6748 6.29572 16.1675 6.45552C10.9941 6.49316 5.79732 6.47712 0.62896 6.47959C0.13493 6.47959 -0.168943 5.9533 0.101448 5.53066ZM8.42099 5.39369C10.0876 5.26906 10.1678 2.71905 8.5745 2.50804C6.35579 2.21497 6.42276 5.54362 8.42099 5.39369Z" fill="#475569"/>
</svg>
