<svg width="18" height="17" viewBox="0 0 18 17" fill="none" xmlns="http://www.w3.org/2000/svg">
<g clip-path="url(#clip0_554_112)">
<path d="M0 8.77631L1.09802 6.98703C1.13855 6.90353 1.38363 6.75186 1.4621 6.75186H5.68824V9.05263H0V8.77631Z" fill="#475569"/>
<path d="M12.277 5.01784C11.4588 4.23925 10.4038 3.53374 9.54446 2.77909C9.49879 2.7398 9.22348 2.49725 9.22348 2.47208V1.87402H11.4247C11.442 1.87402 11.6003 1.8034 11.6164 1.78068C11.6414 1.7463 11.6601 1.63086 11.6652 1.58174C11.7 1.25999 11.7 0.554468 11.6659 0.232717C11.6575 0.154735 11.6279 0.0798237 11.5938 0.00982446L8.89156 0L8.80472 0.201401L8.80022 2.49787L5.65603 5.14126C5.4727 5.33345 5.59813 5.54161 5.8638 5.52564C5.96929 5.5195 6.05999 5.44828 6.16998 5.46301V16.9668C6.44336 16.9711 6.71738 16.9619 6.99077 16.9656C7.19918 16.9687 7.45519 17.0651 7.64881 16.9208V12.5342C7.64881 12.4218 7.8643 12.2701 7.98523 12.2726C8.63812 12.3254 9.40423 12.2044 10.043 12.2732C10.1491 12.2849 10.2597 12.3193 10.3119 12.4157C10.3794 12.5403 10.353 13.0653 10.3492 13.2409C10.3299 14.2522 10.2231 15.4962 10.3164 16.491C10.3292 16.6254 10.454 16.9668 10.6213 16.9668H11.8589L11.891 5.43231C11.9393 5.3838 12.2622 5.67363 12.4178 5.42986C12.5368 5.24442 12.4043 5.13942 12.277 5.01784ZM7.76138 6.87467C7.91704 6.53327 8.33966 6.17283 8.73268 6.1145C9.96707 5.93152 10.8252 7.26335 10.0726 8.22184C9.09483 9.46955 7.10591 8.31456 7.76138 6.87467ZM10.6553 10.9561C10.6264 11.0439 10.5248 11.1072 10.4289 11.1084L7.51823 11.0937C7.43203 11.0605 7.37543 10.9948 7.36128 10.9064C7.33233 10.7295 7.34005 10.2359 7.35806 10.048C7.37092 9.90797 7.38829 9.85393 7.54396 9.82692L10.5428 9.83244C10.6418 9.86192 10.6598 9.96323 10.6695 10.0492C10.6856 10.1966 10.6927 10.8407 10.6553 10.9561Z" fill="#475569"/>
<path d="M12.3407 9.48184V16.9669H17.6276C17.7292 16.9669 17.9968 16.6869 17.9968 16.5837V9.48184H12.3407ZM15.7454 10.4152C15.8895 10.3826 16.5456 10.3753 16.6389 10.471C16.7566 10.5926 16.7225 10.9352 16.5276 10.9782C16.4292 11.0003 15.8348 11.0028 15.7319 10.9844C15.4823 10.9395 15.4174 10.4895 15.7454 10.4152ZM13.6169 13.384C13.7218 13.3619 14.3361 13.3631 14.4313 13.3914C14.6783 13.465 14.6294 13.8691 14.3746 13.9237C14.2872 13.9421 13.6928 13.9452 13.6169 13.9237C13.3828 13.8574 13.3197 13.4479 13.6169 13.384ZM13.4548 12.0049C13.5359 11.8182 14.4287 11.8354 14.549 11.9754C14.6274 12.0669 14.6088 12.315 14.511 12.3973C14.3592 12.525 13.6594 12.5336 13.5121 12.3979C13.4252 12.3174 13.4098 12.1087 13.4548 12.0049ZM14.3418 15.4256C14.1971 15.4508 13.7475 15.449 13.6188 15.3943C13.3583 15.2838 13.3364 14.8865 13.6497 14.8263C13.7655 14.8042 14.3605 14.803 14.4634 14.8331C14.7181 14.9092 14.6718 15.3692 14.3418 15.4256ZM14.3798 10.9838C14.2788 11.0016 13.8588 11.0102 13.7436 11.0046C13.3262 10.985 13.3165 10.4729 13.6169 10.4084C13.7912 10.3716 14.457 10.3759 14.5805 10.5036C14.74 10.6681 14.5843 10.9475 14.3798 10.9838ZM16.5482 15.3845C16.4234 15.4514 15.9506 15.4508 15.7949 15.4336C15.4547 15.3962 15.4283 14.8927 15.7383 14.8263C15.849 14.8024 16.415 14.8061 16.5102 14.8429C16.7457 14.9332 16.7733 15.2635 16.5482 15.3845ZM15.7062 13.3846C15.8355 13.357 16.4163 13.3637 16.5276 13.4153C16.7733 13.5301 16.6884 13.89 16.4363 13.928C16.3166 13.9464 15.7885 13.944 15.6914 13.9065C15.4656 13.82 15.454 13.438 15.7062 13.3846ZM16.5803 12.4396C16.4562 12.5016 15.8483 12.5139 15.7132 12.4746C15.5228 12.4187 15.4347 12.1197 15.564 11.9754C15.6894 11.8354 16.4395 11.8373 16.5951 11.9398C16.7598 12.0485 16.7675 12.3469 16.5803 12.4396Z" fill="#475569"/>
<path d="M0.144094 9.48183C0.134445 9.48183 0.0984232 9.43946 0.0643311 9.45113V16.553C0.0643311 16.6862 0.299116 16.9668 0.433555 16.9668H5.68825V9.48183H0.144094ZM3.58997 10.4084C3.69997 10.3851 4.33614 10.3888 4.42684 10.425C4.65069 10.5165 4.62882 10.9352 4.35286 10.9831C4.25766 10.9997 3.60477 10.9966 3.53594 10.969C3.30694 10.8775 3.31852 10.4667 3.58997 10.4084ZM4.41462 12.4537C4.30848 12.5047 3.78745 12.5047 3.64658 12.4887C3.30501 12.4507 3.29987 11.9944 3.56553 11.9189C3.63114 11.8999 3.80353 11.8876 3.88201 11.8839C4.04089 11.8753 4.37795 11.8741 4.49759 11.9834C4.64361 12.116 4.58894 12.369 4.41462 12.4537ZM1.59848 10.4096C1.91753 10.3587 2.67527 10.3501 2.45014 10.8548C2.36394 11.0476 1.81268 11.0378 1.62228 11.0163C1.22797 10.9715 1.19001 10.4747 1.59848 10.4096ZM1.32381 12.0804C1.39714 11.766 2.12337 11.8968 2.37166 11.9115C2.54341 12.1572 2.52411 12.4494 2.16904 12.4881C1.83777 12.5243 1.21317 12.56 1.32381 12.0804ZM2.32277 15.3955C2.19219 15.4342 1.63064 15.4606 1.51807 15.4103C1.31673 15.3212 1.26013 14.8841 1.53351 14.8263C1.62742 14.8061 2.23915 14.8061 2.31313 14.8355C2.52347 14.9197 2.52604 15.336 2.32277 15.3955ZM2.25781 13.9231C2.15875 13.9421 1.58561 13.947 1.5007 13.9231C1.27171 13.8592 1.20867 13.4159 1.59848 13.3539C1.7387 13.3312 2.17676 13.3287 2.30026 13.3748C2.58329 13.481 2.55756 13.8648 2.25781 13.9225V13.9231ZM4.44678 15.3673C4.29368 15.4606 3.69675 15.4545 3.5353 15.3869C3.34039 15.3047 3.31016 14.8791 3.55781 14.8263C3.68517 14.7993 4.34 14.8055 4.4442 14.857C4.62946 14.9491 4.61917 15.2623 4.44678 15.3673ZM4.46543 13.8826C4.35608 13.9495 3.79967 13.9477 3.64658 13.9305C3.27864 13.8893 3.21303 13.3699 3.78552 13.3257C3.90645 13.3164 4.39918 13.3379 4.47958 13.3815C4.65519 13.4755 4.63396 13.78 4.46543 13.8826Z" fill="#475569"/>
<path d="M16.5031 6.75125C16.7128 6.78196 16.853 6.95266 16.963 7.10985C17.2255 7.48686 17.7755 8.3815 17.9389 8.78553C17.9672 8.85553 18.0019 8.92246 18 9.00044C17.9942 9.02009 17.9234 9.05141 17.917 9.05141H12.3413V6.75064H16.5031V6.75125Z" fill="#475569"/>
<path d="M9.1271 7.21176H9.65713C9.98262 7.67412 9.14511 7.64956 8.85179 7.6121C8.80933 7.60658 8.70898 7.57281 8.70898 7.53412V6.52159C8.70898 6.48291 8.85886 6.41106 8.91547 6.41475C8.96886 6.41782 9.12645 6.52098 9.12645 6.55229V7.21176H9.1271Z" fill="#475569"/>
</g>
<defs>
<clipPath id="clip0_554_112">
<rect width="18" height="17" fill="white"/>
</clipPath>
</defs>
</svg>
