<svg width="21" height="17" viewBox="0 0 21 17" fill="none" xmlns="http://www.w3.org/2000/svg">
<path fill-rule="evenodd" clip-rule="evenodd" d="M10.8964 0.0821913C10.6431 -0.0273971 10.3569 -0.0273971 10.1036 0.0821913L0.617037 4.1865C-0.205679 4.54244 -0.205679 5.72949 0.617037 6.08543L3.40598 7.29205V12.6108C3.40598 13.1353 3.71806 13.6076 4.19532 13.8053L10.0225 16.2191C10.3287 16.3459 10.6713 16.3459 10.9775 16.2191L13.2869 15.2624V16.2263C13.2869 16.6536 13.6272 17 14.047 17C14.4668 17 14.8071 16.6536 14.8071 16.2263V14.6327L16.8047 13.8053C17.2819 13.6076 17.594 13.1353 17.594 12.6108V7.29205L20.383 6.08543C21.2057 5.72949 21.2057 4.54244 20.383 4.1865L10.8964 0.0821913ZM10.5 8.67979L2.30891 5.13596L10.5 1.59214L18.6911 5.13596L14.8071 6.81635V6.64163C14.8071 6.32934 14.6227 6.04767 14.3395 5.92748L10.7925 4.42182C10.4051 4.25736 9.96003 4.44376 9.79847 4.83817C9.63692 5.23258 9.82003 5.68564 10.2075 5.85011L13.2869 7.1573V7.47404L10.5 8.67979Z" fill="white"/>
</svg>
