<svg width="18" height="18" viewBox="0 0 18 18" fill="none" xmlns="http://www.w3.org/2000/svg">
<g clip-path="url(#clip0_554_90)">
<path d="M10.3068 8.36172C8.46083 6.50898 5.93954 9.46726 7.78553 11.1282C9.57134 12.7351 11.9868 10.0473 10.3068 8.36172ZM9.1469 9.90947H8.21314C8.11875 9.81127 8.17069 9.63959 8.1973 9.51993H8.75097C8.82699 9.49587 8.80038 8.96586 8.79975 8.85271C8.79912 8.68753 8.70092 8.38904 8.97333 8.38123C9.30908 8.37148 9.17858 8.86572 9.17731 9.07967C9.17478 9.3554 9.20392 9.64219 9.1469 9.90947Z" fill="#475569"/>
<path d="M14.2738 9.11413L9.21027 3.81798V3.29773L9.25779 3.24896H13.404C13.4597 3.24896 13.5782 3.15141 13.5744 3.07078C13.5649 2.88609 13.048 2.37364 12.9143 2.1922C12.647 1.83128 12.6736 1.85729 12.946 1.51198C13.0815 1.33899 13.487 0.972868 13.5541 0.804437C13.5966 0.697135 13.5871 0.596987 13.4952 0.523502L9.28883 0.487734L9.21471 0.434409C9.1938 0.336862 9.23498 0.224358 9.1938 0.130713C9.16213 0.0591784 9.06837 0.06243 9.0519 0H8.9252C8.92014 0.0572275 8.84792 0.0286138 8.7966 0.0793381C8.75733 0.117707 8.73769 0.18794 8.73452 0.243217L8.75036 3.83294L3.70271 9.11348C3.5418 9.31117 3.72298 9.62788 3.95737 9.60316C4.2171 9.57585 4.60543 9.01658 4.84236 8.87026V17.7886C4.84236 18.1119 5.50309 17.9688 5.67983 17.9655C6.06499 17.9597 6.45142 17.9727 6.83658 17.9675C6.86826 17.0505 6.79287 16.103 6.83658 15.1894C6.98862 12.0002 11.0493 12.1205 11.2051 15.0905C11.2495 15.932 11.195 16.9647 11.1741 17.8225C11.1728 17.8784 11.164 17.9181 11.1405 17.9668H13.0872C13.0929 17.9668 13.1664 17.8914 13.1664 17.8862V8.90278C13.4426 9.03609 13.8614 9.76314 14.2104 9.60056C14.3618 9.52968 14.4176 9.23249 14.2738 9.11413ZM11.1095 10.6085C10.4019 12.3579 8.08076 12.5562 7.08238 10.9727C6.12708 9.45815 7.13179 7.48705 8.85552 7.35243C10.5184 7.22302 11.748 9.02894 11.1095 10.6085Z" fill="#475569"/>
<path d="M10.3068 8.36172C8.46083 6.50898 5.93954 9.46726 7.78553 11.1282C9.57134 12.7351 11.9868 10.0473 10.3068 8.36172ZM9.1469 9.90947H8.21314C8.11875 9.81127 8.17069 9.63959 8.1973 9.51993H8.75097C8.82699 9.49587 8.80038 8.96586 8.79975 8.85271C8.79912 8.68753 8.70092 8.38904 8.97333 8.38123C9.30908 8.37148 9.17858 8.86572 9.17731 9.07967C9.17478 9.3554 9.20392 9.64219 9.1469 9.90947Z" fill="#475569"/>
<path d="M0 10.3322C0.036109 10.2535 0.105159 10.1046 0.205884 10.1046H4.43127V11.7615H0.237559C-0.0988245 11.7615 0.0722179 10.922 0.0329415 10.7028L0 10.6242V10.3315V10.3322Z" fill="#475569"/>
<path d="M0.537842 12.2161V17.9343L4.43064 17.9181V12.2161H0.537842ZM2.83234 13.4829C2.87859 13.4023 3.35434 13.401 3.4652 13.4042C3.54122 13.4068 3.70213 13.4016 3.72873 13.4732C3.80412 13.6793 3.77181 14.0728 3.68692 14.2633H2.84818C2.86148 14.0929 2.75696 13.6143 2.83234 13.4829ZM1.49378 13.4582C1.53876 13.3945 2.24193 13.3854 2.32492 13.4849C2.4041 13.5792 2.40474 14.1293 2.30908 14.2132C2.19695 14.3127 1.65215 14.264 1.49188 14.2262C1.4507 13.9726 1.42916 13.7099 1.49378 13.4582ZM2.25904 15.8839C2.16084 15.9411 1.55966 15.9496 1.50201 15.8566C1.49378 15.7343 1.45387 15.601 1.45324 15.482C1.4526 15.4027 1.47541 15.1009 1.53939 15.0801C1.57613 15.0684 1.7098 15.0586 1.76555 15.0528C1.99994 15.0281 2.33886 14.9728 2.37433 15.2863C2.3927 15.4475 2.40854 15.798 2.25904 15.8839ZM3.69579 15.88C3.63308 15.947 2.96474 15.9444 2.88112 15.8702C2.75189 15.7564 2.80067 15.2752 2.83044 15.1061C2.88936 15.0177 3.59 15.0079 3.68819 15.1068C3.82819 15.2466 3.76548 15.6998 3.69579 15.88Z" fill="#475569"/>
<path d="M13.6093 12.1836V17.9668C14.8465 17.9499 16.0881 18.0072 17.3221 17.9278C17.3652 17.9148 17.5027 17.7561 17.5027 17.7236V12.2161L13.6093 12.1836ZM14.2706 13.4706C14.3156 13.4068 14.9142 13.4062 15.02 13.4166C15.3463 13.4498 15.1993 14.0318 15.16 14.2633H14.353C14.2022 14.2633 14.225 13.587 14.2706 13.4706ZM15.1132 15.9203H14.353C14.2332 15.7753 14.2282 15.5392 14.2465 15.3558C14.2567 15.2544 14.2706 15.0905 14.3859 15.0762C14.5696 15.1159 15.0118 14.9956 15.1467 15.1055C15.2766 15.2121 15.2437 15.7896 15.1132 15.9203ZM16.5531 15.8065C16.4391 15.9626 15.8195 15.9632 15.7131 15.8566C15.606 15.7499 15.5794 15.2947 15.6706 15.1607C15.7758 15.006 16.3738 15.0554 16.5531 15.1081V15.8065ZM16.5531 14.2308C16.3814 14.2575 15.7891 14.3231 15.6839 14.197C15.5921 14.0884 15.5997 13.4186 15.7777 13.4186H16.5056L16.5531 13.4673V14.2308Z" fill="#475569"/>
<path d="M10.5711 17.9343L7.43787 17.9668V14.7667C7.43787 14.3888 7.86801 13.8575 8.16828 13.6644C8.90566 13.1909 9.76341 13.3977 10.281 14.0897C10.3576 14.1924 10.5711 14.593 10.5711 14.7016V17.9343Z" fill="#475569"/>
<path d="M17.8036 10.1046C17.8904 10.1202 17.9619 10.1943 17.9746 10.2853C18.0114 10.5481 18.0038 11.2452 17.979 11.5196C17.9695 11.6243 17.9315 11.7615 17.8036 11.7615H13.6099V10.1046H17.8036Z" fill="#475569"/>
<path d="M10.3069 8.36172C8.46095 6.50898 5.93966 9.46726 7.78565 11.1282C9.57146 12.7351 11.987 10.0473 10.3069 8.36172ZM9.14702 9.90947H8.21326C8.11887 9.81127 8.17082 9.63959 8.19742 9.51993H8.75109C8.82711 9.49587 8.80051 8.96586 8.79987 8.85271C8.79924 8.68753 8.70105 8.38904 8.97345 8.38123C9.3092 8.37148 9.1787 8.86572 9.17743 9.07967C9.1749 9.3554 9.20404 9.64219 9.14702 9.90947Z" fill="#475569"/>
</g>
<defs>
<clipPath id="clip0_554_90">
<rect width="18" height="18" fill="white"/>
</clipPath>
</defs>
</svg>
